# xmcd CD database file
#
# Track frame offsets:
#	150
#	21041
#	73797
#	96063
#	125069
#	141791
#	160137
#
# Disc length: 2633 seconds
#
# Revision: 2
# Processed by: cddbd v1.5.2PL0 Copyright (c) Steve Scherf et al.
# Submitted via: CDex 1.70beta3
#
DISCID=5c0a4707
DTITLE=Annie Ross And Pony Pondexter - Annie Ross and Pony Pondexter With The Berlin All Stars
DYEAR=1966
DGENRE=Jazz
TTITLE0=Saturday Night Fish Fry
TTITLE1=All Blues
TTITLE2=Home Cookin'
TTITLE3=Jumpin' At The Woodside
TTITLE4=Moody's Mood For Love
TTITLE5=Goin' To Chicago
TTITLE6=Twisted
EXTD=YEAR: 1966
EXTT0=
EXTT1=
EXTT2=
EXTT3=
EXTT4=
EXTT5=
EXTT6=
PLAYORDER=
